 <svg fill="none" viewBox="0 0 400 400" width="100%" height="100%" xmlns="http://www.w3.org/2000/svg">
    <foreignObject width="100%" height="100%">



        <div xmlns="http://www.w3.org/1999/xhtml" class="kuma">
          <div xmlns="http://www.w3.org/1999/xhtml" class="kuma-al"></div>
        </div>
        <div xmlns="http://www.w3.org/1999/xhtml" class="dcontainer">
        
            <div class="box about">
               <div class="dflex">
                    <div class="dcolumn img">
                        <svg version="1.0" xmlns="http://www.w3.org/2000/svg"
 width="680.000000pt" height="428.000000pt" viewBox="0 0 680.000000 428.000000"
 preserveAspectRatio="xMidYMid meet">




     <g transform="translate(0.000000,428.000000) scale(0.100000,-0.100000)"
fill="#000000" stroke="none">
<path d="M2612 3688 c-7 -7 -12 -27 -12 -45 0 -21 -6 -36 -15 -39 -8 -4 -15
-14 -15 -24 0 -10 7 -20 15 -24 9 -3 15 -18 15 -39 0 -37 15 -57 42 -57 20 0
26 36 7 42 -20 7 -15 143 5 163 9 9 14 21 11 26 -9 13 -39 11 -53 -3z"/>
<path d="M2730 3650 c0 -5 4 -10 10 -10 24 0 32 -121 9 -136 -18 -10 -9 -25
14 -22 15 2 23 11 25 28 2 14 8 35 14 48 9 17 9 25 1 30 -6 4 -14 22 -18 40
-5 25 -12 32 -31 32 -13 0 -24 -4 -24 -10z"/>
<path d="M4616 3224 c-33 -54 -44 -80 -37 -87 13 -13 8 -18 65 71 42 66 50 92
27 92 -5 0 -29 -34 -55 -76z"/>
<path d="M3355 3282 c-85 -9 -325 -113 -438 -190 -76 -51 -96 -100 -97 -228
l0 -72 -33 -6 c-45 -8 -57 -37 -57 -136 0 -94 4 -106 42 -126 l29 -15 -3 -96
-3 -95 -35 -3 c-72 -4 -120 -59 -120 -137 0 -85 58 -138 150 -138 43 0 50 3
50 20 0 18 -7 20 -54 20 -44 0 -58 4 -80 26 -26 26 -31 45 -27 94 2 32 54 80
87 80 25 0 68 -35 90 -75 14 -25 34 -11 34 24 0 24 5 30 31 35 66 13 69 11 69
-48 0 -80 12 -86 175 -86 155 0 172 7 177 73 l3 42 68 3 67 3 0 -41 c0 -27 7
-47 20 -60 18 -18 33 -20 160 -20 167 0 180 6 180 90 0 43 3 50 20 50 17 0 20
-7 20 -45 0 -38 3 -45 20 -45 14 0 20 7 20 21 0 31 56 79 92 79 64 0 103 -99
63 -157 -29 -41 -165 -56 -165 -19 0 8 -7 16 -15 19 -10 5 -16 -4 -20 -31 -22
-137 -59 -215 -140 -299 l-61 -63 -291 0 -291 0 -56 56 c-73 73 -124 176 -139
278 -9 62 -14 76 -29 76 -15 0 -18 -8 -18 -43 0 -88 83 -270 154 -336 l25 -24
-32 -17 c-18 -9 -42 -32 -54 -50 -21 -30 -23 -44 -23 -166 l0 -133 -32 -17
c-52 -26 -61 -36 -46 -46 9 -7 6 -8 -10 -5 -12 3 -20 2 -17 -3 3 -4 -2 -10
-10 -13 -8 -4 -23 -23 -33 -44 -34 -66 -52 -573 -21 -573 5 0 9 61 9 135 0
102 3 135 13 135 19 -1 124 -27 136 -34 7 -4 10 -78 10 -206 0 -161 3 -205 16
-230 8 -16 11 -30 6 -30 -5 0 -14 -14 -20 -30 -10 -30 -10 -30 -68 -24 -32 4
-59 8 -61 9 -5 4 -21 151 -22 195 0 45 -13 80 -26 68 -3 -4 0 -70 8 -147 l14
-141 -154 0 c-127 0 -153 2 -149 14 6 15 9 233 8 504 -1 170 -1 173 -26 197
l-24 25 -416 0 -416 0 -25 -25 -25 -25 3 -345 3 -345 -657 0 c-651 0 -658 0
-658 -20 0 -20 7 -20 3150 -20 3143 0 3150 0 3150 20 0 20 -7 20 -595 20
l-595 0 0 28 c0 15 11 148 25 296 13 148 22 273 19 278 -3 4 -102 8 -220 8
-180 0 -214 -2 -214 -15 0 -8 16 -137 35 -287 19 -150 35 -281 35 -290 0 -16
-12 -18 -114 -18 -125 0 -176 12 -176 40 0 11 -7 23 -15 28 -14 7 -14 11 0 38
13 25 15 106 15 595 l0 566 -23 34 c-13 19 -38 39 -57 46 -25 8 -161 12 -473
12 l-438 1 46 57 c57 69 83 119 106 198 12 45 21 59 33 57 9 -2 16 2 16 9 0 8
4 8 15 -1 26 -22 95 -2 137 40 35 35 38 42 38 95 0 53 -3 60 -39 96 -28 29
-47 39 -70 39 l-31 0 0 100 c0 60 4 100 10 100 6 0 19 9 30 20 17 17 20 33 20
113 -1 106 -10 125 -64 134 l-36 6 0 94 c0 151 -19 177 -200 271 -175 91 -310
134 -395 124z m525 -867 c0 -103 0 -105 -23 -105 -27 0 -47 17 -47 42 0 12
-13 21 -42 29 -141 38 -224 57 -229 51 -3 -4 -12 -28 -19 -54 -7 -26 -19 -53
-26 -59 -8 -6 -14 -18 -14 -25 0 -11 -16 -14 -64 -14 -61 0 -66 2 -78 28 -9
18 -22 28 -40 30 -20 2 -30 12 -42 42 l-15 39 -68 -20 c-168 -48 -188 -55
-185 -71 1 -10 -8 -18 -29 -22 -71 -14 -69 -18 -69 104 l0 110 495 0 495 0 0
-105z m-572 -177 l3 -68 -146 0 -145 0 0 40 c0 29 5 42 20 50 41 22 166 49
215 47 l50 -2 3 -67z m328 61 c47 -8 68 -8 85 1 19 11 21 10 16 -4 -6 -15 -4
-15 18 0 13 9 29 13 35 9 5 -3 10 -35 10 -71 l0 -65 -142 3 -143 3 -3 53 c-5
84 8 91 124 71z m1024 -641 c11 -13 23 -32 26 -43 2 -11 3 -267 2 -568 l-3
-549 -28 -24 -28 -24 -799 0 c-573 0 -806 3 -824 11 -13 7 -30 23 -36 38 -7
18 -10 198 -8 585 l3 558 24 19 c22 18 51 19 837 19 l813 0 21 -22z m-1841
-443 c0 -5 -6 1 -14 15 -8 14 -14 30 -14 35 0 6 6 -1 14 -15 8 -14 14 -29 14
-35z m70 13 c-12 -16 -30 -35 -40 -41 -11 -7 -19 -16 -19 -22 0 -6 -9 -16 -20
-23 -11 -7 -20 -11 -20 -9 0 2 9 14 20 27 11 13 20 29 20 37 0 7 7 13 15 13 9
0 15 9 15 23 0 16 6 22 25 23 l25 2 -21 -30z m-102 -140 c-3 -7 -5 -2 -5 12 0
14 2 19 5 13 2 -7 2 -19 0 -25z m-369 -30 c17 -17 17 -649 0 -666 -9 -9 -115
-12 -414 -12 -349 0 -403 2 -414 15 -18 22 -17 640 1 661 9 12 79 14 413 14
299 0 405 -3 414 -12z m452 -42 c25 -14 38 -26 30 -26 -18 0 -110 62 -110 74
0 5 8 2 18 -7 9 -8 37 -27 62 -41z m2480 -76 c0 -20 -40 -464 -46 -507 l-5
-43 -119 0 c-116 0 -120 1 -125 23 -6 29 -65 497 -65 520 0 15 16 17 180 17
118 0 180 -4 180 -10z m-1960 -550 c-14 -4 -29 -5 -34 -2 -14 8 27 20 44 14
11 -4 8 -8 -10 -12z m1295 10 c4 -7 -143 -9 -437 -8 l-443 3 410 5 c226 3 422
6 437 8 15 1 30 -2 33 -8z"/>
<path d="M3137 2253 c-12 -11 -8 -23 7 -23 7 0 19 7 26 15 10 12 9 15 -7 15
-11 0 -23 -3 -26 -7z"/>
<path d="M3645 2250 c-3 -5 -2 -10 4 -10 5 0 13 5 16 10 3 6 2 10 -4 10 -5 0
-13 -4 -16 -10z"/>
<path d="M3735 1508 c3 -18 7 -59 10 -90 6 -57 7 -58 45 -68 53 -14 110 8 110
43 0 13 3 52 6 86 l7 61 -91 0 -91 0 4 -32z m145 -13 c0 -11 -12 -15 -46 -15
-27 0 -43 -4 -39 -10 3 -5 23 -10 44 -10 36 0 37 -1 33 -34 -3 -29 -9 -36 -32
-41 -16 -4 -38 -1 -49 5 -24 12 -28 40 -6 40 8 0 15 -4 15 -10 0 -5 12 -10 26
-10 40 0 23 25 -19 28 -35 3 -37 5 -37 38 l0 34 55 0 c42 0 55 -3 55 -15z"/>
<path d="M4339 1182 c-23 -21 -34 -42 -41 -78 -5 -27 -11 -61 -14 -75 -5 -20
1 -30 30 -53 23 -17 36 -35 36 -50 0 -27 17 -36 65 -36 48 0 65 9 65 35 0 23
28 55 48 55 18 0 26 48 13 76 -6 14 -11 39 -11 55 0 22 -10 41 -34 65 -29 29
-41 34 -80 34 -36 0 -52 -6 -77 -28z m147 -16 c26 -26 34 -42 34 -70 0 -20 5
-45 12 -55 9 -15 9 -23 -1 -35 -8 -9 -19 -16 -27 -16 -7 0 -18 -8 -23 -17 -9
-16 -12 -16 -21 -3 -8 13 -10 12 -10 -3 0 -10 -5 -15 -10 -12 -6 4 -8 14 -6
23 3 10 1 24 -4 32 -7 12 -12 12 -22 2 -10 -10 -10 -16 0 -33 8 -12 11 -24 8
-27 -3 -3 -6 -1 -6 5 0 6 -13 9 -30 7 -16 -2 -30 1 -30 6 0 6 -11 15 -25 20
-24 9 -31 22 -25 45 2 6 6 32 11 59 17 103 107 140 175 72z m-62 -251 c3 -8 1
-15 -4 -15 -6 0 -10 7 -10 15 0 8 2 15 4 15 2 0 6 -7 10 -15z m40 3 c-3 -4 -9
-8 -15 -8 -5 0 -9 4 -9 8 0 5 7 9 15 9 8 0 12 -4 9 -9z m-67 -4 c-3 -3 -12 -4
-19 -1 -8 3 -5 6 6 6 11 1 17 -2 13 -5z"/>
<path d="M4351 1099 c0 -9 -8 -19 -16 -23 -21 -8 -19 -33 5 -63 11 -14 20 -21
20 -14 0 6 6 11 14 11 25 0 29 21 8 43 -11 12 -22 31 -25 42 -3 14 -5 15 -6 4z
m29 -71 c0 -4 -7 -8 -15 -8 -16 0 -38 34 -28 44 7 7 43 -23 43 -36z"/>
<path d="M4471 1096 c-1 -11 -10 -30 -22 -42 -22 -23 -19 -44 7 -44 8 0 14 -5
14 -11 0 -7 9 0 20 14 23 29 26 53 6 64 -7 4 -16 15 -19 23 -4 11 -6 10 -6 -4z
m27 -48 c-6 -16 -36 -34 -44 -25 -9 9 15 37 33 37 8 0 13 -5 11 -12z"/>
<path d="M3947 1134 l-37 -25 -27 20 c-40 33 -88 28 -129 -13 -28 -28 -34 -42
-34 -75 0 -37 -4 -44 -35 -62 -35 -21 -46 -39 -24 -39 7 0 26 9 45 20 23 15
35 17 39 9 4 -6 23 -18 42 -26 72 -30 143 22 143 106 0 43 3 47 37 66 38 21
55 45 31 45 -7 0 -30 -11 -51 -26z"/>
<path d="M3210 1090 c0 -5 15 -10 33 -11 l32 -1 -27 -11 c-29 -11 -37 -26 -15
-28 78 -6 87 -10 67 -34 -14 -17 -46 -20 -55 -5 -8 13 -25 13 -25 0 0 -17 40
-32 70 -25 23 5 29 12 32 40 3 30 1 34 -22 38 l-25 3 28 12 c45 19 31 32 -33
32 -33 0 -60 -4 -60 -10z"/>
<path d="M3803 680 c0 -25 2 -35 4 -22 2 12 2 32 0 45 -2 12 -4 2 -4 -23z"/>
<path d="M3850 686 c0 -2 9 -6 20 -9 11 -3 18 -1 14 4 -5 9 -34 13 -34 5z"/>
<path d="M3830 670 c0 -6 11 -16 25 -22 32 -14 32 -32 0 -26 -13 3 -22 1 -19
-3 8 -13 42 -11 50 3 4 6 -1 17 -12 24 -10 7 -25 18 -31 24 -9 8 -13 8 -13 0z"/>
<path d="M3753 630 c4 -17 47 -27 47 -11 0 6 -7 8 -16 4 -9 -3 -20 0 -26 8 -8
12 -9 11 -5 -1z"/>
<path d="M1955 775 c-14 -13 -25 -36 -25 -50 0 -33 42 -75 75 -75 33 0 75 42
75 75 0 33 -42 75 -75 75 -14 0 -37 -11 -50 -25z"/>
<path d="M4710 3262 c0 -5 9 -17 20 -27 11 -10 20 -23 20 -30 0 -7 -9 -20 -20
-30 -22 -20 -27 -45 -8 -45 18 0 68 51 68 70 0 9 -13 28 -28 43 -28 27 -52 35
-52 19z"/>
<path d="M1453 2370 c-3 -11 -10 -20 -15 -20 -6 0 -7 -8 -4 -17 4 -9 1 -20 -6
-25 -10 -8 -10 -11 0 -15 6 -2 12 -11 12 -19 0 -8 5 -14 10 -14 6 0 10 7 10
15 0 8 7 15 16 15 10 0 14 -6 10 -15 -3 -9 0 -15 9 -15 8 0 15 6 15 14 0 8 6
17 13 19 9 4 8 8 -3 16 -12 8 -12 11 3 17 13 5 15 10 7 19 -6 7 -8 20 -4 29 4
11 1 16 -10 16 -9 0 -16 -8 -16 -20 0 -11 -7 -20 -16 -20 -11 0 -14 6 -9 20 4
12 2 20 -5 20 -7 0 -14 -9 -17 -20z m37 -50 c0 -5 -4 -10 -10 -10 -5 0 -10 5
-10 10 0 6 5 10 10 10 6 0 10 -4 10 -10z"/>
<path d="M2740 2230 c-36 -36 -15 -120 31 -120 23 0 25 22 4 40 -21 18 -19 45
7 62 12 8 18 19 14 26 -11 18 -34 14 -56 -8z"/>
<path d="M3997 2243 c-13 -12 -7 -33 8 -33 20 0 20 -48 -1 -72 -16 -16 -15
-18 0 -24 49 -19 79 89 34 120 -25 18 -32 19 -41 9z"/>
<path d="M3330 2120 c0 -12 10 -24 24 -30 13 -5 27 -14 31 -19 12 -20 60 -11
95 19 25 21 32 32 24 40 -12 12 -61 -8 -74 -31 -6 -8 -18 -4 -42 15 -42 31
-58 33 -58 6z"/>
<path d="M4797 2112 c-15 -15 -27 -32 -27 -37 0 -11 51 -65 62 -65 15 0 8 23
-12 45 l-20 22 20 18 c20 18 27 45 12 45 -5 0 -20 -13 -35 -28z"/>
<path d="M3297 1923 c-11 -11 -8 -20 19 -52 37 -44 94 -58 151 -36 45 17 73
47 73 77 0 25 -17 22 -52 -7 -21 -18 -41 -25 -70 -25 -28 0 -51 8 -74 25 -36
27 -38 28 -47 18z"/>

                    <div class="dcolumn content">
                        <div class="position">
                            <h1 class="name">
                                Alejandro
                            </h1>
                            <a class="nick">
                                @ALeeHDss
                            </a>
                            <p>
                                The only thing you should know is that I'm always curious to learn the latest in technology. A bit of a cross-platform application development enthusiast.
                            </p>
                            <div class="content--stats">
                                <div class="content--stats--item">
                                    <h5>14</h5>
                                    <p>Followers</p>
                                </div>
                                <div class="content--stats--item">
                                    <h5>3</h5>
                                    <p>Following</p>
                                </div>
                                <div class="content--stats--item">
                                    <h5>400</h5>
                                    <p>Commits</p>
                                </div>
                            </div>
                            
                        </div>
                    </div>
               </div>
            </div>
            <div class="box dcolumn skills">
                <div class="dcolumn content">
                    <div class="position">
                        <h1 class="name">
                            Skills
                        </h1>
                        <p>
                            Specialized in backend development and infrastructure technologies, with skills in Lua, HTML5 and Css3, and handling Docker. Experienced in frontend development with HTML, CSS, JavaScript and React, providing comprehensive and efficient technical solutions.
                        </p>
                        
                    </div>
                </div>
            </div>
            <div class="box test">
                <div class="dcolumn content">
                    <div class="position">
                   
      <svg
        width="500"
        height="100%"
        viewBox="0 0 500 500"
        fill="none"
        xmlns="http://www.w3.org/2000/svg"
        role="img"
        aria-labelledby="descId"
        class="language"
      >
        <title id="titleId"></title>
        <desc id="descId"></desc>
        <style>

            svg.language{
                position: absolute;
                width: 500px;
                height: 500px;
                left: 0;
                transform: translateX(-18%) scale(0.65) translateY(-17%);
                top: 0;
            }

          .header {
            font: 600 18px 'Segoe UI', Ubuntu, Sans-Serif;
            fill: #61dafb;
            animation: fadeInAnimation 0.8s ease-in-out forwards;
          }
          @supports(-moz-appearance: auto) {
            /* Selector detects Firefox */
            .header { font-size: 15.5px; }
          }
          
    @keyframes slideInAnimation {
      from {
        width: 0;
      }
      to {
        width: calc(100%-100px);
      }
    }
    @keyframes growWidthAnimation {
      from {
        width: 0;
      }
      to {
        width: 100%;
      }
    }
    .stat {
      font: 600 14px 'Segoe UI', Ubuntu, "Helvetica Neue", Sans-Serif; fill: #ffffff;
    }
    @supports(-moz-appearance: auto) {
      /* Selector detects Firefox */
      .stat { font-size:12px; }
    }
    .bold { font-weight: 700 }
    .lang-name {
      font: 400 11px "Segoe UI", Ubuntu, Sans-Serif;
      fill: #ffffff;
    }
    .stagger {
      opacity: 0;
      animation: fadeInAnimation 0.3s ease-in-out forwards;
    }
    #rect-mask rect{
      animation: slideInAnimation 1s ease-in-out forwards;
    }
    .lang-progress{
      animation: growWidthAnimation 0.6s ease-in-out forwards;
    }
    

          
    /* Animations */
    @keyframes scaleInAnimation {
      from {
        transform: translate(-5px, 5px) scale(0);
      }
      to {
        transform: translate(-5px, 5px) scale(1);
      }
    }
    @keyframes fadeInAnimation {
      from {
        opacity: 0;
      }
      to {
        opacity: 1;
      }
    }
  
          
        </style>

        

        <rect
          data-testid="card-bg"
          x="0.5"
          y="0.5"
          rx="10"
          stroke="#e4e2e2"
         
          stroke-opacity="0.2"
        />

        
      <g
        data-testid="card-title"
        transform="translate(25, 35)"
      >
        <g transform="translate(0, 0)">
      <text
        x="0"
        y="0"
        class="header"
        data-testid="header"
      >Most Used Languages</text>
    </g>
      </g>
    

        <g
          data-testid="main-card-body"
          transform="translate(0, 55)"
        >
          
    <svg data-testid="lang-items" x="25">
      
  
  <mask id="rect-mask">
      <rect x="0" y="0" width="100%" height="100%" fill="white" rx="5"/>
    </mask>
    
        <rect
          mask="url(#rect-mask)"
          data-testid="lang-progress"
          x="0"
          y="0"
          width="108.99"
          height="8"
          fill="#f1e05a"
        />
      
        <rect
          mask="url(#rect-mask)"
          data-testid="lang-progress"
          x="108.99"
          y="0"
          width="38.62"
          height="8"
          fill="#178600"
        />
      
        <rect
          mask="url(#rect-mask)"
          data-testid="lang-progress"
          x="147.60999999999999"
          y="0"
          width="36.54"
          height="8"
          fill="#3572A5"
        />
      
        <rect
          mask="url(#rect-mask)"
          data-testid="lang-progress"
          x="184.14999999999998"
          y="0"
          width="28.51"
          height="8"
          fill="#563d7c"
        />
      
        <rect
          mask="url(#rect-mask)"
          data-testid="lang-progress"
          x="212.65999999999997"
          y="0"
          width="18.05"
          height="8"
          fill="#f34b7d"
        />
      
        <rect
          mask="url(#rect-mask)"
          data-testid="lang-progress"
          x="230.70999999999998"
          y="0"
          width="11.63"
          height="8"
          fill="#3178c6"
        />
      
        <rect
          mask="url(#rect-mask)"
          data-testid="lang-progress"
          x="242.33999999999997"
          y="0"
          width="13.98"
          height="8"
          fill="#555555"
        />
      
        <rect
          mask="url(#rect-mask)"
          data-testid="lang-progress"
          x="246.31999999999996"
          y="0"
          width="13.68"
          height="8"
          fill="#5686a5"
        />
      
  
    <g transform="translate(0, 25)">
  <g transform="translate(0, 0)">
    <g transform="translate(0, 0)">
      <g class="stagger" style="animation-delay: 450ms">
        <circle cx="5" cy="6" r="5" fill="#001f3f" /> <!-- Cambiado a azul marino -->
        <text data-testid="lang-name" x="15" y="10" class='lang-name' fill="#001f3f"> <!-- Cambiado a azul marino -->
          Lua 43.60%
      </text>
    </g>
</g><g transform="translate(0, 25)">
  <g class="stagger" style="animation-delay: 600ms">
    <circle cx="5" cy="6" r="5" fill="#FFA500" /> <!-- Cambiado a naranja -->
    <text data-testid="lang-name" x="15" y="10" class='lang-name' fill="#FFA500"> <!-- Cambiado a naranja -->
         Html5 15.45%
      </text>
    </g>
</g><g transform="translate(0, 50)">
  <g class="stagger" style="animation-delay: 750ms">
    <circle cx="5" cy="6" r="5" fill="#FFFF00" /> <!-- Cambiado a amarillo -->
    <text data-testid="lang-name" x="15" y="10" class='lang-name' fill="#FFFF00"> <!-- Cambiado a amarillo -->
         Python 14.61%
      </text>
    </g>
  </g><g transform="translate(0, 75)">
  <g class="stagger" style="animation-delay: 900ms">
    <circle cx="5" cy="6" r="5" fill="#ADD8E6" /> <!-- Cambiado a azul claro -->
    <text data-testid="lang-name" x="15" y="10" class='lang-name' fill="#ADD8E6"> <!-- Cambiado a azul claro -->

        CSS3 11.41
      </text>
    </g>
  </g></g>
    </g>
  
    </svg>
  
        </g>
      </svg>
    
                        <!-- <h1 class="name">
                            Skills
                        </h1>
                        <p>
                            Specialized in backend development and infrastructure technologies, with skills in C#, C++ and C, and handling Docker, Terraform and Kubernetes. Experienced in frontend development with HTML, CSS, JavaScript and React, providing comprehensive and efficient technical solutions.
                        </p> -->
                        
                    </div>
                </div>
            </div>
            <style>

            @font-face {
                font-family: 'Fira Code';
                src: url(./fonts/FiraCode-Bold.ttf);
            }
           
           .kuma {
                display: initial;
                background: #fff;
                }

            .kuma-al {
                position: fixed;
                z-index: -1;
                background: radial-gradient(circle at 75% 50%,#ff002b3a,hsla(0,0%,100%,0) 25%),radial-gradient(circle at 60% 30%,#ff002b3a,hsla(0,0%,100%,0) 10%);
                inset: 0;
            }

            .dcontainer{
                width: 100%;
                height: 100%;
                display: grid;
                grid-template-columns: repeat(2, 1fr);
                grid-template-rows: repeat(2, 1fr); 
                gap: 10px;
                <!-- background-color: blue; -->
            }
            .dcontainer .box{
                width: 100%;
                height: 100%;
                border-top: 1px solid rgb(255 255 255 / 0.01);
                display: flex;
                justify-content: center;
                align-items: center;
                border-radius: 10px;
                 background-color: rgb(255 255 255 / 0.01);
                backdrop-filter: blur(50px);
                webkit-backdrop-filter: blur(100%);
                overflow: hidden;
            }

            .box.about{
                 grid-area: 1 / 1 / 2 / 3;
            }

            .box.skills{
                  grid-area: 2 / 1 / 3 / 2;
            }

            .box.test{
                   grid-area: 2 / 2 / 3 / 3;
            }
            .dflex{
                display: flex;
                justify-content: center;
                align-items: center;
                flex-direction: row;
                width: 100%;
                height: 100%;
                padding: 10px;
            }

            .dcolumn{
                display: flex;
                justify-content: flex-start;
                align-items: flex-start;
                flex-direction: column;
                width: calc(50% - 10px);
                height: 100%;
            }

            .dcolumn.img{
                width: 30%;
                display: flex;
                align-items: center;
                

            }

            .img-profile{
                margin-top: 30px;
                width: 50px;
                height: 50px;
                border-radius: 50%;
            }
            
            .dcolumn.content{
                width: 70%;

            }

            .position{
                display:flex;
                justify-content: center;
                align-items: flex-start;
                flex-direction: column;
                height: 100%;
                padding: 10px;
            }

            h1{
                color: silver;
                text-transform: uppercase;
                font-family: 'Fira Code', sans-serif;
                font-size: 900;
                font-size: .8rem;
                
            }

            h5{
                color: silver;
                text-transform: uppercase;
                font-family: 'Fira Code', sans-serif;
                font-size: 900;
                font-size: .6rem;
                
            }

            .name{
                margin-bottom: .6vh; 
            }

            .nick{
                color: gray;
                margin: 0; 
                font-family: 'Fira Code', sans-serif;
                font-size: .5rem !important;
            }

            p{
                color: gray;
                font-family: 'Fira Code', sans-serif;
                font-size: .5rem;
                line-height: 1.5;
            
            
            }


            .content--stats{
                display: flex;
                justify-content: space-around;
                align-items: flex-start;
                flex-direction: row;
                width: 100%;
            }
            

            .content--stats--item{
                display: flex;
                justify-content: center;
                align-items: center;
                flex-direction: column;
                border-right: 1px solid rgb(255 255 255 / 0.1); 
                width: 100%;
                height: auto;
                padding: 5px;
            }

            .content--stats--item:last-child{
                border-right: none;
            }

            .content--stats--item h5, .content--stats--item p{
                width: auto;
                height: auto;
                margin: 0;
                margin-top: 2px;
            }

            .btn-cont{
                display: flex;
                justify-content: flex-start;
                align-items: flex-start;
                width: 70%;
                height: auto;
                margin-top: 10px;
            }

            button{
                <!-- height: 3vh; -->
                padding: 5px 0;
                width: 10vh;
                border-radius: 3px;
                margin-right: 10px;
                border: none;
                background-color: #fff;
                color: #000;
                font-family: 'Fira Code', sans-serif;
                font-size: .5rem;
                font-weight: 900;
                cursor: pointer;
                transition: all .3s ease;
            
            }

            button:hover{
                background-color: #000;
                color: #fff;
            }

            button.border{
                border: 0.2px solid silver;
                background-color: transparent;
                 color: silver;
            }

              @keyframes bg {
                  from {
                      color: blue;
                  }
                  to {
                      color: green;
                  }
              }
            </style>
        </div>
    </foreignObject>
  </svg>
